<svg width="98" height="120" viewBox="0 0 98 120" fill="none" xmlns="http://www.w3.org/2000/svg">
<path d="M49 11.4333C63.4278 15.5167 79.2167 20.4167 87.1111 23.1389V65.8778C87.1111 75.1333 77.0389 91.4667 49 107.8C20.9611 91.1944 10.8889 75.1333 10.8889 65.8778V23.1389C18.7833 20.1444 34.5722 15.5167 49 11.4333ZM49 0C49 0 0 13.8833 0 16.3333V65.8778C0 90.9222 36.2056 112.972 46.2778 118.961C47.0836 119.5 48.0309 119.787 49 119.787C49.9691 119.787 50.9164 119.5 51.7222 118.961C62.0667 113.244 98 90.9222 98 65.8778V16.3333C98 13.8833 49 0 49 0Z" fill="#33CC33"/>
<path d="M37.0228 74.5882L23.4117 61.2493C22.4685 60.2852 21.8965 59.0188 21.7969 57.6737C21.6972 56.3287 22.0764 54.9918 22.8672 53.8993C23.3079 53.2432 23.893 52.6968 24.5776 52.3021C25.2623 51.9074 26.0283 51.6748 26.8169 51.6222C27.6055 51.5697 28.3956 51.6985 29.1266 51.9988C29.8576 52.2992 30.5101 52.7631 31.0339 53.3548L40.8339 63.1549L66.9672 37.0215C68.0157 36.2352 69.3126 35.8534 70.6198 35.9463C71.9271 36.0392 73.157 36.6006 74.0837 37.5273C75.0104 38.454 75.5717 39.6839 75.6646 40.9911C75.7575 42.2984 75.3758 43.5953 74.5895 44.6437L44.645 74.5882C44.1605 75.1162 43.5715 75.5379 42.9155 75.8263C42.2594 76.1147 41.5506 76.2636 40.8339 76.2636C40.1172 76.2636 39.4084 76.1147 38.7523 75.8263C38.0963 75.5379 37.5073 75.1162 37.0228 74.5882Z" fill="#33CC33"/>
</svg>
