<svg width="125" height="117" viewBox="0 0 125 117" fill="none" xmlns="http://www.w3.org/2000/svg">
<path fill-rule="evenodd" clip-rule="evenodd" d="M65.6563 19.1335C60.1458 14.5456 53.2159 12.0074 46.0448 11.9506C38.8738 11.8939 31.9045 14.3219 26.322 18.822C20.7395 23.3221 16.8886 29.6163 15.424 36.6343C13.9594 43.6523 14.9717 50.9608 18.2886 57.317C19.3476 59.3406 19.2451 61.5008 19.1597 62.5254C19.0273 63.8743 18.7874 65.2106 18.4423 66.5213C17.9545 68.4095 17.3846 70.2755 16.7341 72.1139C18.9547 71.3455 21.1754 70.6624 23.1398 70.2099C24.6858 69.8566 26.3088 70.1318 27.6519 70.9749C28.9949 71.8179 29.9479 73.1598 30.3013 74.7053C30.6547 76.2509 30.3794 77.8734 29.5361 79.2161C28.6928 80.5587 27.3505 81.5115 25.8045 81.8647C22.9006 82.5307 18.6558 84.0676 14.8893 85.5704C12.8799 86.3772 10.8839 87.2169 8.90212 88.0892L8.54341 88.2429L8.458 88.2856L8.43237 88.2941C7.32501 88.7923 6.09214 88.9417 4.8978 88.7222C3.70346 88.5027 2.60429 87.9249 1.74654 87.0655C0.888792 86.2062 0.313144 85.1061 0.0961917 83.9117C-0.12076 82.7172 0.031271 81.485 0.532056 80.3791V80.3705L0.549138 80.3364L0.617465 80.1827L0.873691 79.585C2.17706 76.6382 3.40169 73.6573 4.54627 70.6453C5.51139 68.0838 6.3484 65.5907 6.85231 63.6268C7.03167 62.8584 7.1427 62.2863 7.20249 61.8765C2.87397 53.0419 1.70848 42.9902 3.90066 33.4C6.09283 23.8099 11.51 15.262 19.2473 9.18386C26.9846 3.10577 36.5737 -0.134484 46.413 0.00427853C56.2524 0.143041 65.7462 3.65242 73.3089 9.94628C74.5276 10.9608 75.2932 12.4177 75.4374 13.9965C75.5815 15.5754 75.0924 17.1468 74.0776 18.3651C73.0628 19.5834 71.6055 20.3488 70.0262 20.4929C68.4469 20.637 66.875 20.148 65.6563 19.1335Z" fill="#FF5F29"/>
<path fill-rule="evenodd" clip-rule="evenodd" d="M35.3191 70.7478C35.3241 64.2245 36.8 57.7863 39.6371 51.9118C42.4741 46.0373 46.5993 40.8777 51.7059 36.8167C56.8125 32.7557 62.7691 29.8977 69.1328 28.4553C75.4966 27.0129 82.1037 27.0231 88.4629 28.4852C94.8222 29.9473 100.77 32.8237 105.864 36.9005C110.958 40.9773 115.067 46.1496 117.886 52.0328C120.705 57.9161 122.161 64.3588 122.146 70.8821C122.13 77.4054 120.645 83.8414 117.798 89.7115C117.85 89.9932 117.927 90.3689 118.046 90.8471C118.473 92.5291 119.242 94.7149 120.164 97.1142C120.907 99.0182 121.685 100.897 122.402 102.63L122.914 103.877C123.333 104.884 123.717 105.84 124.033 106.66C124.289 107.36 124.665 108.368 124.862 109.273C125.059 110.206 125.045 111.171 124.821 112.098C124.598 113.024 124.17 113.89 123.569 114.63C122.969 115.371 122.21 115.968 121.349 116.378C120.488 116.788 119.546 117 118.593 117C117.149 117 115.757 116.658 114.775 116.385C113.637 116.052 112.515 115.67 111.41 115.241C109.804 114.626 107.976 113.858 106.234 113.124L104.389 112.355C102.421 111.502 100.411 110.747 98.3679 110.092C98.0996 110.011 97.829 109.937 97.5565 109.87C90.9374 113.055 83.6183 114.508 76.2844 114.094C68.9506 113.679 61.8417 111.412 55.6233 107.503C49.4049 103.594 44.2803 98.1716 40.7292 91.7434C37.1781 85.3151 35.3166 78.0912 35.3191 70.7478ZM48.1304 70.7478C48.1344 66.1141 49.1912 61.5419 51.2211 57.3763C53.251 53.2106 56.201 49.5603 59.8483 46.7009C63.4955 43.8415 67.7449 41.8478 72.2756 40.8701C76.8063 39.8924 81.5 39.9564 86.0023 41.0572C90.5047 42.158 94.6981 44.2668 98.266 47.2246C101.834 50.1823 104.683 53.9116 106.599 58.1311C108.514 62.3505 109.446 66.9499 109.324 71.5819C109.201 76.214 108.028 80.7577 105.892 84.8702C104.833 86.9109 104.868 89.0113 104.953 90.1128C105.038 91.4362 105.32 92.7853 105.636 94.0063C106.097 95.8335 106.764 97.8314 107.481 99.7782C105.682 99.0362 103.849 98.378 101.989 97.8058C100.755 97.4252 99.4886 97.1594 98.2056 97.0117C96.375 96.7828 94.5173 97.0913 92.859 97.8997C88.1935 100.327 82.981 101.511 77.7245 101.338C72.4679 101.165 67.3447 99.64 62.8492 96.9111C58.3537 94.1821 54.6375 90.341 52.0594 85.7582C49.4812 81.1754 48.128 76.0057 48.1304 70.7478ZM117.739 89.1906L117.73 89.0882V89.1992L117.739 89.1906Z" fill="#FF5F29"/>
</svg>
