<svg width="203" height="97" viewBox="0 0 203 97" fill="none" xmlns="http://www.w3.org/2000/svg">
<g opacity="0.1" clip-path="url(#clip0_174_563)">
<path d="M9.0401 81.1088V95.0306C9.0401 95.7811 8.41883 96.399 7.66642 96.399H1.91665C1.16327 96.399 0.542969 95.7812 0.542969 95.0306V47.8151C0.542969 47.0657 1.16318 46.4478 1.91665 46.4478H7.40238C8.15461 46.4478 8.77606 47.0657 8.77606 47.8151V49.6864C9.65257 48.9293 10.6223 48.2871 11.6309 47.7621C13.9511 46.5562 16.5429 45.9294 18.9018 45.9294C23.5965 45.9294 27.4378 47.4603 30.0919 50.4514C32.6128 53.2965 34.0253 57.4393 34.0253 62.8046C34.0253 68.9956 32.0391 73.4799 29.02 76.5406C25.3818 80.2202 20.2367 81.7964 15.2237 81.7964C13.7268 81.7964 12.361 81.6737 11.0496 81.4802L9.0401 81.1088ZM9.0401 61.9611V72.9304L10.9252 73.4799C11.9649 73.6954 13.2686 73.8501 14.9597 73.8501C17.9942 73.8501 20.8414 73.0156 22.7743 71.0835C24.4187 69.4287 25.4673 66.8931 25.4673 63.314C25.4673 60.0136 24.7061 57.679 23.3867 56.2102C21.9821 54.6494 19.8405 53.9452 17.2187 53.9452C15.8839 53.9452 14.5412 54.2936 13.3696 54.8882C12.1746 55.4917 11.1194 56.3649 10.366 57.3619L10.3117 57.447C9.95554 57.9191 9.64481 58.591 9.43502 59.3107L9.41186 59.3881C9.17882 60.1994 9.0401 61.1267 9.0401 61.9612V61.9611ZM67.3997 71.1067V76.703C67.3921 77.1584 67.159 77.6071 66.7473 77.8624C65.3981 78.697 63.6285 79.7018 61.316 80.4909C59.0037 81.2713 56.1399 81.8582 52.586 81.8582C47.0304 81.8582 42.6542 80.0266 39.6196 76.935C36.4385 73.6875 34.7553 69.0418 34.7553 63.7008C34.7553 58.645 36.5083 54.007 39.7982 50.7064C42.8484 47.6458 47.2012 45.7357 52.6558 45.7357C57.7233 45.7357 61.7587 47.3208 64.5516 50.1803C67.3688 53.0795 68.8821 57.2378 68.8821 62.3478L68.82 65.3775C68.82 66.128 68.1987 66.7458 67.4463 66.7458H43.3599C43.6706 68.5553 44.5549 70.178 45.9129 71.4071L45.9984 71.4766C47.6749 72.9456 50.096 73.8498 53.1063 73.8498C59.1978 73.8498 62.1382 71.9874 64.9553 70.178L65.1883 70.0244C65.4213 69.8465 65.7153 69.7381 66.026 69.7381C66.7783 69.7381 67.3997 70.3559 67.3997 71.1066L67.3997 71.1067ZM46.2704 55.4142C45.1065 56.3648 44.2609 57.6558 43.8338 59.1867H60.5328C60.261 57.6867 59.5475 56.3802 58.4678 55.4063C57.103 54.1773 55.0925 53.4278 52.5861 53.4278C49.9951 53.4278 47.8149 54.1463 46.2704 55.4141V55.4142ZM101.992 71.1067V76.703C101.984 77.1584 101.752 77.6071 101.34 77.8624C99.99 78.697 98.2213 79.7018 95.9168 80.4909C93.6045 81.2713 90.7406 81.8582 87.1866 81.8582C81.6311 81.8582 77.2461 80.0266 74.2126 76.935C71.0315 73.6875 69.347 69.0418 69.347 63.7008C69.347 58.645 71.109 53.9993 74.3989 50.7064C77.4479 47.6381 81.8019 45.7357 87.2488 45.7357C92.3161 45.7357 96.3583 47.3208 99.1522 50.1803C101.968 53.0795 103.482 57.2378 103.482 62.3478L103.412 65.3013C103.412 66.128 102.792 66.7459 102.038 66.7459H77.9529C78.2713 68.5554 79.1479 70.1781 80.506 71.4071L80.5992 71.4767C82.2668 72.938 84.6879 73.8499 87.6993 73.8499C93.7898 73.8499 96.7312 71.9875 99.5473 70.1781L99.7803 70.0245C100.013 69.8465 100.308 69.7382 100.619 69.7382C101.371 69.7382 101.992 70.356 101.992 71.1066L101.992 71.1067ZM80.87 55.4142C79.706 56.3648 78.8605 57.6558 78.4256 59.1867H95.1168C94.8527 57.6945 94.1392 56.388 93.053 55.4063C91.6872 54.1773 89.6933 53.4278 87.1867 53.4278C84.5949 53.4278 82.4223 54.1463 80.8701 55.4141L80.87 55.4142ZM121.151 62.3943L137.236 78.7202C137.547 78.9756 137.748 79.3624 137.748 79.7869C137.748 80.5374 137.128 81.1553 136.375 81.1553H128.755C128.406 81.1476 128.049 81.016 127.784 80.7451L114.958 67.8591V79.7869C114.958 80.5374 114.338 81.1553 113.585 81.1553H107.772C107.02 81.1553 106.4 80.5375 106.4 79.7869V47.815C106.4 47.0656 107.02 46.4477 107.772 46.4477H113.515C114.268 46.4477 114.888 47.0656 114.888 47.815V57.9653L126.179 47.0425C126.427 46.7562 126.799 46.5793 127.203 46.5793H134.567C134.931 46.587 135.296 46.7329 135.56 47.0115C136.072 47.5531 136.048 48.4263 135.506 48.937L121.15 62.3944L121.151 62.3943ZM9.0401 16.9341V34.4891C9.0401 35.2385 8.41883 35.8575 7.66642 35.8575H1.91665C1.16327 35.8575 0.542969 35.2386 0.542969 34.4891V2.65646C0.542969 1.90709 1.16318 1.28802 1.91665 1.28802H7.53431C8.28664 1.28802 8.90799 1.90709 8.90799 2.65646V4.51904C9.738 3.76187 10.6767 3.08208 11.7007 2.5095C13.8189 1.3268 16.341 0.585063 19.0261 0.585063C21.9975 0.585063 24.605 1.22616 26.6389 2.56363C28.0191 3.47558 29.1054 4.64275 29.8899 6.11174C31.0228 4.75883 32.4118 3.56841 33.9864 2.64874C36.1823 1.36558 38.7741 0.585063 41.5525 0.585063C44.3143 0.585063 46.55 1.0792 48.3574 2.04633C50.1805 3.02785 51.5385 4.4814 52.5316 6.37496L52.586 6.46778C53.1063 7.47238 53.4791 8.77125 53.7034 10.0933C53.983 11.7159 54.0916 13.4402 54.0916 14.8086V34.4892C54.0916 35.2386 53.4714 35.8576 52.7179 35.8576H47.0382C46.2859 35.8576 45.6645 35.2387 45.6645 34.4892V16.5473C45.6645 15.2872 45.6022 13.9033 45.4403 12.7594C45.3161 11.9017 45.1141 11.1289 44.8501 10.6107C44.4773 9.8999 43.9036 9.38918 43.1969 9.07315L43.0891 9.03437C42.2193 8.67851 41.0864 8.52374 39.806 8.52374C38.4944 8.52374 37.1142 8.88741 35.8648 9.58265C34.6931 10.2248 33.5991 11.2063 32.7602 12.4741C32.4118 12.9915 32.0856 13.6645 31.8681 14.4681C31.6895 15.1635 31.5651 16.0067 31.5651 16.9961V34.4892C31.5651 35.2386 30.9449 35.8576 30.1927 35.8576H24.5117C23.7593 35.8576 23.1391 35.2387 23.1391 34.4892V16.4854C23.1391 15.2872 23.0615 14.0272 22.8828 12.9605C22.743 12.1105 22.5178 11.3612 22.2304 10.8582C21.7577 10.0856 21.1441 9.50526 20.4074 9.13492L20.3297 9.10404C19.5153 8.70939 18.49 8.52374 17.2794 8.52374C15.9924 8.52374 14.6343 8.87188 13.416 9.52851L13.3383 9.57484C12.1589 10.2325 11.0648 11.214 10.226 12.4741C9.86984 12.9838 9.57462 13.5873 9.37267 14.2902C9.17072 15.0099 9.03984 15.8908 9.03984 16.9342L9.0401 16.9341ZM81.6079 1.93798C82.7951 2.43212 83.9202 3.08208 84.9832 3.87794C85.1618 3.50655 85.5025 3.21359 85.9296 3.12849L92.0833 1.8684C92.8355 1.8684 93.4569 2.48625 93.4569 3.23684V33.9088C93.4569 34.6593 92.8355 35.2772 92.0833 35.2772H86.2091C85.4557 35.2772 84.8354 34.6594 84.8354 33.9088V33.3296C81.9716 35.4396 78.6819 36.4986 74.9803 36.4986C72.6059 36.4986 70.379 36.051 68.3307 35.1766C66.3368 34.3267 64.4816 33.0356 62.8062 31.3511L62.6897 31.2428C61.0131 29.472 59.756 27.5167 58.926 25.4143C58.0884 23.2721 57.6611 20.9841 57.6611 18.5413C57.6611 16.092 58.0884 13.7962 58.926 11.6772C59.756 9.57484 61.0287 7.64277 62.6975 5.90302C66.1504 2.40123 70.2159 0.647181 74.9804 0.647181C77.3315 0.647181 79.5518 1.07938 81.6079 1.93807V1.93798ZM71.8537 27.8571C72.9088 28.3202 74.096 28.5523 75.3687 28.5523C76.6103 28.5523 77.7743 28.328 78.8139 27.888C79.9468 27.3929 80.9399 26.6744 81.833 25.7381C83.6638 23.7441 84.5792 21.3401 84.5792 18.5413C84.5792 17.1741 84.3695 15.9293 83.9512 14.8009L83.8968 14.6693C83.4463 13.5021 82.7562 12.4123 81.8485 11.4229C80.9476 10.448 79.9468 9.70635 78.8837 9.23441C77.8208 8.76353 76.6414 8.52365 75.3687 8.52365C74.1271 8.52365 72.9632 8.748 71.9235 9.19563L71.8459 9.23441C70.7906 9.70644 69.782 10.448 68.8899 11.4229C67.9735 12.4122 67.2756 13.5098 66.8329 14.6693C66.3757 15.8288 66.1504 17.1198 66.1504 18.5413C66.1504 19.9561 66.3835 21.2626 66.8329 22.4453C67.2756 23.6358 67.9735 24.7412 68.8899 25.7227C69.782 26.6667 70.7907 27.3929 71.8537 27.8572V27.8571ZM105.903 16.9341V34.4891C105.903 35.2385 105.283 35.8575 104.529 35.8575H98.7794C98.0271 35.8575 97.4057 35.2386 97.4057 34.4891V2.65646C97.4057 1.90709 98.027 1.28802 98.7794 1.28802H104.397C105.15 1.28802 105.771 1.90709 105.771 2.65646V4.52676C106.616 3.77731 107.587 3.09761 108.642 2.53275C110.9 1.33452 113.593 0.585063 116.402 0.585063C119.032 0.585063 121.329 1.0792 123.207 2.03861C125.139 3.02013 126.652 4.51132 127.685 6.46006C128.227 7.47247 128.6 8.73264 128.825 10.0235C129.112 11.6617 129.205 13.417 129.205 14.8086V34.4892C129.205 35.2386 128.585 35.8576 127.831 35.8576H122.151C121.399 35.8576 120.778 35.2387 120.778 34.4892V16.3538C120.778 15.2021 120.7 13.9961 120.522 12.9837C120.359 12.1259 120.134 11.392 119.823 10.8891C119.374 10.101 118.706 9.52842 117.915 9.15036C117.015 8.72483 115.874 8.52365 114.594 8.52365C113.228 8.52365 111.66 8.90277 110.24 9.65213C109.006 10.3098 107.873 11.245 107.106 12.451C106.733 12.9837 106.439 13.5872 106.237 14.2901C106.035 15.0098 105.903 15.8907 105.903 16.9341ZM152.213 28.4982L153.741 28.3666C155.091 28.4053 156.364 28.5368 157.489 28.7535C158.614 28.9702 159.661 29.294 160.554 29.7195C161.377 30.1141 162.129 30.5773 162.789 31.057L162.89 31.1266C163.619 31.6826 164.263 32.2938 164.768 32.9117L166.001 34.7754C167.22 37.4259 167.367 38.1455 167.593 41.0514C167.593 41.8019 166.971 42.4199 166.219 42.4199H157.38C156.837 42.4122 156.317 42.0794 156.107 41.5467C155.782 40.7121 155.371 40.0158 154.92 39.5063C154.502 39.0265 153.989 38.6628 153.454 38.4539C152.058 38.0063 152.151 38.045 150.668 37.9134C149.178 38.0062 148.232 38.1841 146.788 38.4926L144.709 39.2354C142.769 40.1396 141.077 40.9509 139.223 42.033C138.703 42.3269 138.02 42.2651 137.578 41.8329L133.458 37.8515C132.992 37.4569 132.821 36.7772 133.101 36.2046L137.756 26.597C136.849 26.1095 136.274 25.8154 135.561 25.1047C132.829 22.1668 131.478 18.8276 131.478 15.002C131.478 13.0378 131.867 11.1907 132.65 9.49736C133.403 7.87474 134.529 6.39794 136.01 5.09934L136.072 5.04512C137.531 3.75406 139.285 2.78807 141.279 2.14688L141.357 2.116C143.358 1.48139 145.616 1.1565 148.084 1.1565H165.9C166.653 1.1565 167.274 1.7754 167.274 2.52494V7.61171C167.266 8.36879 166.645 8.97234 165.893 8.97234L161.749 8.94137C162.976 10.6879 163.596 12.652 163.596 14.8086C163.596 16.7175 163.223 18.5269 162.494 20.2036L162.455 20.2887C161.711 21.9435 160.586 23.481 159.127 24.8416C157.598 26.2178 155.914 27.2458 154.067 27.9332L152.213 28.4981L152.213 28.4982ZM147.231 29.472L149.256 28.9392L147.184 28.9237L146.772 29.6113L147.231 29.472H147.231ZM154.712 14.8086C154.712 10.9199 152.36 8.92593 147.689 8.84082L147.565 8.84854C146.261 8.84854 145.144 9.01112 144.25 9.31171C143.335 9.62897 142.622 10.0777 142.078 10.626C141.504 11.276 141.069 11.9634 140.79 12.6443C140.503 13.3859 140.356 14.1586 140.356 15.002C140.356 16.9263 140.914 18.3798 142.031 19.3227C143.195 20.312 145.058 20.8691 147.549 20.9686H147.635C149.986 20.9686 151.739 20.4822 152.887 19.5084L152.965 19.431C154.059 18.4649 154.649 16.9417 154.719 14.9091L154.712 14.8085V14.8086ZM197.002 5.35466C200.252 8.58551 202.052 13.1462 202.052 18.4109C202.052 23.659 200.151 28.2197 196.885 31.466C193.664 34.667 189.109 36.5682 183.771 36.5682C178.377 36.5682 173.861 34.7521 170.688 31.6053C167.499 28.4361 165.675 23.9298 165.675 18.6032C165.675 13.4247 167.546 8.78669 170.836 5.49381C174.001 2.32376 178.494 0.391602 183.895 0.391602C189.381 0.391602 193.866 2.23865 197.001 5.35466H197.002ZM190.762 25.8619C192.585 23.9685 193.502 21.2549 193.502 18.4804C193.502 15.6508 192.671 12.8985 190.863 11.005C189.342 9.4277 187.045 8.39977 183.895 8.39977C180.744 8.39977 178.424 9.45104 176.881 11.067C175.033 12.9914 174.172 15.7746 174.172 18.6032C174.172 21.5102 175.08 24.1154 176.842 25.9161C178.432 27.5475 180.806 28.5523 183.895 28.5523C186.898 28.5523 189.195 27.4934 190.762 25.862L190.762 25.8619Z" fill="black"/>
</g>
<defs>
<clipPath id="clip0_174_563">
<rect width="201.51" height="96.0072" fill="white" transform="translate(0.542969 0.392578)"/>
</clipPath>
</defs>
</svg>
