<svg width="26" height="26" viewBox="0 0 26 26" fill="none" xmlns="http://www.w3.org/2000/svg">
<path fill-rule="evenodd" clip-rule="evenodd" d="M23.9912 2.44285C24.021 2.1618 23.7251 1.96656 23.4882 2.11091L2.49686 14.8978C1.81877 15.3109 1.84924 16.3281 2.55077 16.6977L5.84987 18.4357L17.8616 8.17155C18.2481 7.84134 18.8132 7.85578 19.1831 8.20533C19.553 8.55488 19.6134 9.13143 19.3242 9.55358L16.382 13.8491C16.3769 13.8566 16.3717 13.864 16.3664 13.8713L11.2768 20.8966L18.7923 23.7866C20.2229 24.3367 21.7753 23.3561 21.9404 21.7981L23.9912 2.44285ZM22.4639 0.341618C24.1227 -0.668819 26.1939 0.697816 25.9854 2.66521L23.9346 22.0204C23.628 24.9139 20.7449 26.735 18.0882 25.7134L9.57438 22.4395C8.82462 22.1512 8.55322 21.2062 9.03084 20.5469L13.1221 14.8996L6.72587 20.3653C6.35491 20.6823 5.8352 20.7412 5.40571 20.5149L1.63438 18.5281C-0.470197 17.4194 -0.561609 14.3677 1.47265 13.1285L22.4639 0.341618Z" fill="white"/>
</svg>
